<svg xmlns="http://www.w3.org/2000/svg" width="1024" height="1024" viewBox="0 0 1024 1024">
  <defs>
    <linearGradient id="bg" x1="0" y1="0" x2="1" y2="1">
      <stop offset="0" stop-color="#1c2129"/>
      <stop offset="1" stop-color="#0a0b0e"/>
    </linearGradient>
    <linearGradient id="ring" x1="0.1" y1="0" x2="0.9" y2="1">
      <stop offset="0" stop-color="#5eead4"/>
      <stop offset="0.55" stop-color="#10b981"/>
      <stop offset="1" stop-color="#047857"/>
    </linearGradient>
    <radialGradient id="halo" cx="0.5" cy="0.4" r="0.55">
      <stop offset="0" stop-color="#10b981" stop-opacity="0.28"/>
      <stop offset="1" stop-color="#10b981" stop-opacity="0"/>
    </radialGradient>
  </defs>
  <rect width="1024" height="1024" fill="url(#bg)"/>
  <rect width="1024" height="1024" fill="url(#halo)"/>
  <circle cx="512" cy="512" r="346" fill="none" stroke="#2b313b" stroke-width="56"/>
  <circle cx="512" cy="512" r="346" fill="none" stroke="url(#ring)" stroke-width="56" stroke-linecap="round"
    stroke-dasharray="1700 2174" transform="rotate(-90 512 512)"/>
  <g transform="translate(374 366) scale(11.4)">
    <path d="M8.5 14.5A2.5 2.5 0 0 0 11 12c0-1.38-.5-2-1-3-1.072-2.143-.224-4.054 2-6 .5 2.5 2 4.9 4 6.5 2 1.6 3 3.5 3 5.5a7 7 0 1 1-14 0c0-1.153.433-2.294 1-3a2.5 2.5 0 0 0 2.5 2.5z" fill="#ffffff"/>
  </g>
</svg>
